<svg width="576" height="14" viewBox="0 0 576 14" fill="none" xmlns="http://www.w3.org/2000/svg">
<path fill-rule="evenodd" clip-rule="evenodd" d="M41.4319 7.09789C45.6185 7.36749 50.603 7.62806 56.0763 7.87289C78.3078 8.86737 107.967 9.57747 122.835 9.63881C229.829 10.0803 336.474 8.34658 443.254 5.31635C403.403 5.31608 363.553 5.32516 323.703 5.3611C236.367 5.83589 138.118 6.43559 65.4774 6.87897C57.508 6.92761 49.8469 6.97437 42.5423 7.01888C42.172 7.04499 41.8019 7.07133 41.4319 7.09789ZM541.45 5.32622C551.827 5.32721 562.204 5.32786 572.581 5.32786C573.917 5.32786 575 4.59069 575 3.68134C575 2.77199 573.917 2.03482 572.581 2.03482C565.371 2.03482 558.16 2.0345 550.949 2.03398C550.937 2.02434 550.924 2.01502 550.911 2.00601C550.619 1.79488 550.316 1.68714 550.181 1.64296C549.759 1.50481 549.322 1.47001 549.226 1.46233L549.213 1.46129C549.023 1.44511 548.81 1.43408 548.593 1.42575C548.153 1.40883 547.558 1.39802 546.809 1.39233C521.107 1.19719 495.404 1.28804 469.726 1.3788L465.91 1.39225C428.751 1.52258 378.354 1.77085 323.68 2.06807C304.234 2.08561 284.787 2.10955 265.341 2.14192C244.281 2.17698 222.49 1.88322 200.362 1.58492C147.806 0.87643 93.349 0.142314 42.2746 3.72734C27.781 3.81565 14.696 3.89505 3.39729 3.96265C2.06162 3.97064 0.988358 4.71426 1.0001 5.62357C1.01183 6.53289 2.10412 7.26355 3.4398 7.25556C10.1121 7.21565 17.4072 7.17161 25.2472 7.12406C25.2479 7.13587 25.2488 7.14773 25.2499 7.15964C25.2941 7.66514 25.635 8.03467 25.9146 8.25425C26.4023 8.63721 27.0398 8.8321 27.3692 8.92479C28.1528 9.14526 29.2332 9.32012 30.414 9.47148C35.2238 10.088 44.6495 10.6619 55.7592 11.1589C78.0741 12.1571 107.83 12.87 122.805 12.9318C252.676 13.4676 382.011 10.8015 511.661 6.50399C517.553 6.30868 529.322 5.87536 538.151 5.47933C539.303 5.42765 540.41 5.3764 541.45 5.32622ZM548.417 1.59497C548.415 1.59529 548.412 1.59563 548.41 1.59597C548.461 1.58655 548.471 1.58725 548.417 1.59497ZM29.1453 8.25408C29.116 8.26511 29.0986 8.27007 29.0973 8.26978C29.0959 8.2695 29.1106 8.26399 29.1453 8.25408Z" fill="#8FA8FF" stroke="black" stroke-width="0.72764" stroke-linecap="round"/>
</svg>
