<svg width="217" height="10" viewBox="0 0 217 10" fill="none" xmlns="http://www.w3.org/2000/svg">
<path fill-rule="evenodd" clip-rule="evenodd" d="M7.99348 0.949688C8.002 0.561245 8.33184 0.253086 8.7302 0.261395C22.7179 0.55315 36.6942 1.11263 50.6627 1.6718C51.4457 1.70314 52.2288 1.73449 53.0118 1.76579C67.765 2.35548 82.5106 2.9281 97.2685 3.16909C136.201 3.80484 174.766 2.18907 213.636 0.485617C214.096 0.465426 214.924 0.523005 215.536 0.613549C215.816 0.65499 216.16 0.717413 216.39 0.822665C216.45 0.850114 216.565 0.907237 216.669 1.01091C216.781 1.1229 216.959 1.38017 216.867 1.72398C216.792 2.00407 216.582 2.14338 216.508 2.18803C216.412 2.24614 216.314 2.28201 216.241 2.30509C209.516 4.42668 201.017 4.7977 193.929 5.1071C192.879 5.15295 191.859 5.19745 190.881 5.24609C153.845 7.08811 116.663 6.93611 79.5639 6.78445C69.3395 6.74265 59.1213 6.70088 48.914 6.70088H45.0862C67.7905 7.36995 90.4995 7.90046 113.21 8.25765C115.065 8.28682 116.489 8.30084 117.17 8.30754L117.238 8.30822C117.4 8.30982 117.514 8.31097 117.572 8.3118C117.587 8.312 117.6 8.31221 117.61 8.31245C117.615 8.31255 117.623 8.31275 117.632 8.31314C117.633 8.31318 117.637 8.31333 117.643 8.31364C117.649 8.31398 117.657 8.31451 117.666 8.3153C117.666 8.3153 117.705 8.31809 117.751 8.32756C117.79 8.33649 117.939 8.39347 118.041 8.45703C118.304 8.84916 118.107 9.52012 117.893 9.66054C117.834 9.68277 117.748 9.70547 117.722 9.71014C117.708 9.71229 117.685 9.7152 117.676 9.71613C117.66 9.71774 117.647 9.71845 117.643 9.71869C117.632 9.71926 117.623 9.7195 117.62 9.71958C117.613 9.71979 117.605 9.71989 117.6 9.71995C117.59 9.72008 117.576 9.72016 117.56 9.72023C117.473 9.7206 117.263 9.72057 116.918 9.72052C116.773 9.7205 116.604 9.72047 116.41 9.72047H93.3569C93.0601 9.72047 92.8052 9.54577 92.6944 9.29608C72.4508 8.88756 52.2098 8.34967 31.9736 7.70704C27.3378 7.55982 22.7142 7.40339 18.0914 7.24699C13.1458 7.07966 8.2011 6.91237 3.24368 6.75643C2.76414 6.74135 2.38194 6.73005 2.0961 6.72159C2.01785 6.71928 1.94683 6.71718 1.883 6.71527C1.73538 6.71086 1.62414 6.70743 1.55197 6.7048C1.51745 6.70354 1.48527 6.70224 1.46127 6.70084L1.46054 6.70079C1.45468 6.70047 1.42247 6.69868 1.38831 6.69397C1.37967 6.69277 1.34716 6.68829 1.30733 6.67824C1.29095 6.6741 1.23992 6.66101 1.17916 6.63298C1.14671 6.61703 1.06882 6.56986 1.02494 6.53682C0.960491 6.47737 0.833822 6.2946 0.787609 6.16759C0.766072 6.00203 0.831601 5.7039 0.904002 5.58316C0.963566 5.51326 1.07833 5.41745 1.12747 5.38722C1.21226 5.33959 1.28752 5.32059 1.30574 5.31599L1.30671 5.31575C1.35544 5.30342 1.39537 5.29889 1.40449 5.29786L1.40524 5.29777C1.45464 5.29213 1.51381 5.29187 1.5236 5.29183C1.52422 5.29182 1.52464 5.29182 1.52485 5.29182C1.55309 5.2915 1.59037 5.29135 1.63512 5.29129C1.72514 5.29117 1.85443 5.29142 2.02129 5.2918C2.05272 5.29187 2.08552 5.29195 2.1197 5.29203C2.4496 5.29281 2.90826 5.29388 3.49632 5.29388H48.914C59.1351 5.29388 69.3625 5.33568 79.5925 5.37748C116.686 5.52905 153.815 5.68076 190.808 3.84092C191.802 3.79146 192.832 3.74624 193.887 3.6999C199.642 3.44714 206.16 3.16091 211.894 1.9703C173.639 3.64406 135.623 5.2026 97.2443 4.57589C82.4666 4.33457 67.7047 3.76125 52.9527 3.1716C52.1709 3.14036 51.3891 3.10906 50.6074 3.07777C36.6356 2.51847 22.6724 1.95952 8.69934 1.66807C8.30099 1.65976 7.98496 1.33813 7.99348 0.949688ZM1.54774 5.29637C1.54283 5.29608 1.54395 5.29606 1.54911 5.29644L1.54774 5.29637ZM117.58 8.31312C117.584 8.31302 117.586 8.31302 117.583 8.31306L117.58 8.31312Z" fill="#8FA8FF"/>
</svg>
