<svg width="162" height="13" viewBox="0 0 262 13" fill="none" xmlns="http://www.w3.org/2000/svg">
<path fill-rule="evenodd" clip-rule="evenodd" d="M244.175 6.36624C244.043 6.3976 243.879 6.4237 243.691 6.44711C242.659 6.5755 241.59 6.52597 240.597 6.47995C240.223 6.46262 239.86 6.44578 239.514 6.43915C234.443 6.34198 229.374 6.21414 224.307 6.08604L224.154 6.08216C219.138 5.95534 214.124 5.82859 209.11 5.73128C205.821 5.66746 202.162 5.61214 198.195 5.56416C214.069 6.77893 229.953 8.20516 245.867 9.80747C246.174 9.83839 246.513 9.86734 246.877 9.8944C253.026 9.96884 256.666 10.0398 258.54 10.097C259.068 10.1131 259.459 10.1282 259.729 10.1423C259.864 10.1492 259.973 10.1562 260.056 10.1633C260.097 10.1668 260.138 10.1709 260.175 10.1758L260.177 10.1761C260.2 10.1791 260.274 10.1888 260.351 10.2145C260.374 10.2223 260.423 10.2395 260.479 10.271L260.481 10.2718C260.515 10.2908 260.672 10.378 260.786 10.5799C260.838 10.6881 260.899 10.9482 260.9 11.096C260.88 11.239 260.791 11.4799 260.732 11.5759C260.608 11.7518 260.459 11.8258 260.425 11.8426L260.423 11.8433C260.329 11.8898 260.247 11.906 260.233 11.909C260.215 11.9127 260.199 11.9156 260.184 11.9178C260.173 11.9195 260.163 11.9209 260.155 11.9219C260.087 11.9308 260.001 11.9359 259.918 11.9396C259.741 11.9476 259.477 11.9533 259.147 11.9569C256.771 11.983 250.531 11.904 246.784 11.6288C246.018 11.6195 245.213 11.6102 244.368 11.6009C215.043 11.2766 185.692 11.2884 156.334 11.3001C104.786 11.3208 53.2197 11.3414 1.74467 9.54309C1.3114 9.52795 0.978723 9.12748 1.00162 8.64861C1.02451 8.16974 1.3943 7.79381 1.82757 7.80895C53.282 9.60656 104.799 9.58578 156.326 9.56499C179.785 9.55553 203.245 9.54607 226.703 9.70819C207.622 7.95958 188.575 6.48546 169.528 5.34695C149.422 5.25695 126.458 5.24527 104.719 5.23421C95.2671 5.2294 86.0468 5.2247 77.3939 5.21375C55.4403 5.18594 37.1339 5.11778 27.9764 4.90457C25.689 4.85132 23.9596 4.78876 22.8845 4.71456C22.3624 4.67853 21.9463 4.63701 21.6972 4.58168C21.6345 4.56775 21.5471 4.54559 21.4601 4.50811C21.418 4.48999 21.3439 4.45489 21.2653 4.39325C21.2008 4.34262 21.0305 4.19517 20.9598 3.91582C20.8724 3.57079 20.9929 3.27549 21.1174 3.10768C21.2211 2.96792 21.3372 2.89531 21.3864 2.86661C21.494 2.80373 21.6013 2.77148 21.6589 2.75539C21.9027 2.68728 22.3244 2.63186 22.867 2.57866C23.4329 2.52317 24.1928 2.46494 25.1544 2.4036C27.0785 2.28087 29.8301 2.14445 33.4922 1.99263C74.3421 0.299141 114.818 0.769331 155.246 2.81866C155.199 2.70438 155.175 2.57646 155.178 2.4416C155.191 1.9625 155.553 1.57717 155.987 1.58093C160.91 1.62362 165.834 1.64449 170.757 1.66537C192.232 1.75644 213.7 1.84748 235.146 3.74903C235.897 3.81562 237.017 3.88799 238.226 3.96616C239.333 4.03776 240.515 4.11422 241.559 4.19556C242.617 4.278 243.552 4.36705 244.046 4.46473C244.162 4.4878 244.31 4.52145 244.437 4.57634L244.439 4.57717C244.483 4.59618 244.644 4.66588 244.778 4.83087C244.858 4.92893 244.972 5.11583 244.981 5.38531C244.99 5.66607 244.88 5.88007 244.784 6.00552C244.633 6.20097 244.445 6.27741 244.399 6.29629L244.396 6.29761C244.318 6.32944 244.24 6.35092 244.175 6.36624ZM165.602 3.37785C166.937 3.45429 168.272 3.53239 169.607 3.61215C185.123 3.6817 198.936 3.79793 209.171 3.99654C210.141 4.01537 211.112 4.03531 212.082 4.05613C198.322 3.51779 184.547 3.45927 170.74 3.4006C169.028 3.39332 167.316 3.38604 165.602 3.37785ZM130.9 3.51745C101.774 2.51373 72.594 2.38987 43.2356 3.36389C52.5557 3.43123 64.3402 3.46216 77.429 3.47874C86.0773 3.48969 95.2942 3.49438 104.744 3.49919C113.354 3.50357 122.157 3.50804 130.9 3.51745Z" fill="#8FA8FF"/>
<path d="M22.0051 4.43955C22.0051 4.43949 22.0072 4.43876 22.0118 4.43744M243.691 6.44711C243.879 6.4237 244.043 6.3976 244.175 6.36624C244.24 6.35092 244.318 6.32944 244.396 6.29761L244.399 6.29629C244.445 6.27741 244.633 6.20097 244.784 6.00552C244.88 5.88007 244.99 5.66607 244.981 5.38531C244.972 5.11583 244.858 4.92893 244.778 4.83087C244.644 4.66588 244.483 4.59618 244.439 4.57717L244.437 4.57634C244.31 4.52145 244.162 4.4878 244.046 4.46473C243.552 4.36705 242.617 4.278 241.559 4.19556C240.515 4.11422 239.333 4.03776 238.226 3.96616C237.017 3.88799 235.897 3.81562 235.146 3.74903C213.7 1.84748 192.232 1.75644 170.757 1.66537C165.834 1.64449 160.91 1.62362 155.987 1.58093C155.553 1.57717 155.191 1.9625 155.178 2.4416C155.175 2.57646 155.199 2.70438 155.246 2.81866C114.818 0.769331 74.3421 0.299141 33.4922 1.99263C29.8301 2.14445 27.0785 2.28087 25.1544 2.4036C24.1928 2.46494 23.4329 2.52317 22.867 2.57866C22.3244 2.63186 21.9027 2.68728 21.6589 2.75539C21.6013 2.77148 21.494 2.80373 21.3864 2.86661C21.3372 2.89531 21.2211 2.96792 21.1174 3.10768C20.9929 3.27549 20.8724 3.57079 20.9598 3.91582C21.0305 4.19517 21.2008 4.34262 21.2653 4.39325C21.3439 4.45489 21.418 4.48999 21.4601 4.50811C21.5471 4.54559 21.6345 4.56775 21.6972 4.58168C21.9463 4.63701 22.3624 4.67853 22.8845 4.71456C23.9596 4.78876 25.689 4.85132 27.9764 4.90457C37.1339 5.11778 55.4403 5.18594 77.3939 5.21375C86.0468 5.2247 95.2671 5.2294 104.719 5.23421C126.458 5.24527 149.422 5.25695 169.528 5.34695C188.575 6.48546 207.622 7.95958 226.703 9.70819C203.245 9.54607 179.785 9.55553 156.326 9.56499C104.799 9.58578 53.282 9.60656 1.82757 7.80895C1.3943 7.79381 1.02451 8.16974 1.00162 8.64861C0.978723 9.12748 1.3114 9.52795 1.74467 9.54309C53.2197 11.3414 104.786 11.3208 156.334 11.3001C185.692 11.2884 215.043 11.2766 244.368 11.6009C245.213 11.6102 246.018 11.6195 246.784 11.6288C250.531 11.904 256.771 11.983 259.147 11.9569C259.477 11.9533 259.741 11.9476 259.918 11.9396C260.001 11.9359 260.087 11.9308 260.155 11.9219C260.163 11.9209 260.173 11.9195 260.184 11.9178C260.199 11.9156 260.215 11.9127 260.233 11.909C260.247 11.906 260.329 11.8898 260.423 11.8433L260.425 11.8426C260.459 11.8258 260.608 11.7518 260.732 11.5759C260.791 11.4799 260.88 11.239 260.9 11.096C260.899 10.9482 260.838 10.6881 260.786 10.5799C260.672 10.378 260.515 10.2908 260.481 10.2718L260.479 10.271C260.423 10.2395 260.374 10.2223 260.351 10.2145C260.274 10.1888 260.2 10.1791 260.177 10.1761L260.175 10.1758C260.138 10.1709 260.097 10.1668 260.056 10.1633C259.973 10.1562 259.864 10.1492 259.729 10.1423C259.459 10.1282 259.068 10.1131 258.54 10.097C256.666 10.0398 253.026 9.96884 246.877 9.8944C246.513 9.86734 246.174 9.83839 245.867 9.80747C229.953 8.20516 214.069 6.77893 198.195 5.56416C202.162 5.61214 205.821 5.66746 209.11 5.73128C214.124 5.82859 219.138 5.95534 224.154 6.08216L224.307 6.08604C229.374 6.21414 234.443 6.34198 239.514 6.43915C239.86 6.44578 240.223 6.46262 240.597 6.47995C241.59 6.52597 242.659 6.5755 243.691 6.44711ZM169.607 3.61215C168.272 3.53239 166.937 3.45429 165.602 3.37785C167.316 3.38604 169.028 3.39332 170.74 3.4006C184.547 3.45927 198.322 3.51779 212.082 4.05613C211.112 4.03531 210.141 4.01537 209.171 3.99654C198.936 3.79793 185.123 3.6817 169.607 3.61215ZM43.2356 3.36389C72.594 2.38987 101.774 2.51373 130.9 3.51745C122.157 3.50804 113.354 3.50357 104.744 3.49919C95.2942 3.49438 86.0773 3.48969 77.429 3.47874C64.3402 3.46216 52.5557 3.43123 43.2356 3.36389Z" stroke="black" stroke-width="0.72764" stroke-linecap="round"/>
</svg>
